<?xml version="1.0" encoding="utf-8"?>
<!-- Uploaded to: SVG Repo, www.svgrepo.com, Generator: SVG Repo Mixer Tools -->
<svg viewBox="0 -0.01 512.023 512.023" xmlns="http://www.w3.org/2000/svg">
  <g id="_18_Close" data-name="18 Close" transform="translate(0.012 0.001)">
    <path id="Path_25" data-name="Path 25" d="M74.966,437.013C-25,337.043-25,174.947,74.966,74.976c100-99.97,262.067-99.97,362.068,0,99.97,99.971,99.97,262.067,0,362.037C337.033,537,174.968,537,74.966,437.013ZM391.783,120.227c-75-74.985-196.565-74.985-271.535,0-75,74.985-75,196.55,0,271.535,74.97,74.986,196.534,74.986,271.535,0C466.754,316.776,466.754,195.212,391.783,120.227ZM188.124,369.137l-45.251-45.266,67.876-67.877-67.876-67.876,45.251-45.267L256,210.743l67.877-67.892,45.25,45.267-67.876,67.876,67.876,67.877-45.25,45.266L256,301.245Z" fill-rule="evenodd"/>
  </g>
</svg>