<?xml version="1.0" encoding="utf-8"?>
<!-- Uploaded to: SVG Repo, www.svgrepo.com, Generator: SVG Repo Mixer Tools -->
<svg viewBox="0 0 24 24" xmlns="http://www.w3.org/2000/svg">
    <path d="M2 20C2 20.5523 2.44772 21 3 21C3.55228 21 4 20.5523 4 20V4C4 3.44772 3.55228 3 3 3C2.44772 3 2 3.44772 2 4V20Z"/>
    <path d="M13.7071 17.7071C14.0976 17.3166 14.0976 16.6834 13.7071 16.2929L10.4142 13L21 13C21.5523 13 22 12.5523 22 12C22 11.4477 21.5523 11 21 11L10.4142 11L13.7071 7.70711C14.0976 7.31658 14.0976 6.68342 13.7071 6.29289C13.3166 5.90237 12.6834 5.90237 12.2929 6.29289L7.29289 11.2929C6.90237 11.6834 6.90237 12.3166 7.29289 12.7071L12.2929 17.7071C12.6834 18.0976 13.3166 18.0976 13.7071 17.7071Z"/>
</svg>